# xmcd
#
# Track frame offsets: 
#        150
#        19463
#        38975
#        50570
#        66055
#        78713
#        90768
#        112048
#        131243
#        147413
#        160840
#        177073
#        197328
#        204053
#        226113
#        245400
#        267700
#        285838
#
# Disc length: 4061 seconds
#
# Revision: 5
# Processed by: cddbd v1.5.2PL0 Copyright (c) Steve Scherf et al.
# Submitted via: ExactAudioCopy v1.3
#
DISCID=f60fdb12
DTITLE=Tom Waits - Big Time (Japan UICY-77964)
DYEAR=1988
DGENRE=Blues
TTITLE0=16 Shells From A Thirty-Ought-Six
TTITLE1=Red Shoes
TTITLE2=Underground
TTITLE3=Cold Cold Ground
TTITLE4=Straight To The Top
TTITLE5=Yesterday Is Here
TTITLE6=Way Down The Hole
TTITLE7=Falling Down
TTITLE8=Strange Weather
TTITLE9=Big Black Mariah
TTITLE10=Rain Dogs
TTITLE11=Train Song
TTITLE12=Johnsburg, Illinois
TTITLE13=Ruby's Arms
TTITLE14=Telephone Call From Istanbul
TTITLE15=Clap Hands
TTITLE16=Gun Street Girl
TTITLE17=Time
EXTD=YEAR: 1988
EXTT0=
EXTT1=
EXTT2=
EXTT3=
EXTT4=
EXTT5=
EXTT6=
EXTT7=
EXTT8=
EXTT9=
EXTT10=
EXTT11=
EXTT12=
EXTT13=
EXTT14=
EXTT15=
EXTT16=
EXTT17=
PLAYORDER=
